<svg xmlns="http://www.w3.org/2000/svg" viewBox="0 0 93 115"><defs><style>.cls-1{fill:#fff;}.cls-2{fill:none;}</style></defs><g id="Layer_2" data-name="Layer 2"><g id="Layer_1-2" data-name="Layer 1"><path class="cls-1" d="M24.87,74.9h35V34h-35Zm36.66,3.4H23.17a1.7,1.7,0,0,1-1.7-1.7V32.34a1.7,1.7,0,0,1,1.7-1.7H61.53a1.7,1.7,0,0,1,1.7,1.7V76.6a1.7,1.7,0,0,1-1.7,1.7"/><path class="cls-1" d="M55.63,40.85H29a1.71,1.71,0,0,1,0-3.41h26.6a1.71,1.71,0,0,1,0,3.41"/><path class="cls-1" d="M55.63,48.51H29a1.71,1.71,0,0,1,0-3.41h26.6a1.71,1.71,0,0,1,0,3.41"/><path class="cls-1" d="M55.63,56.17H29a1.7,1.7,0,0,1,0-3.4h26.6a1.7,1.7,0,0,1,0,3.4"/><path class="cls-1" d="M55.63,63.83H29a1.7,1.7,0,0,1,0-3.4h26.6a1.7,1.7,0,0,1,0,3.4"/><path class="cls-1" d="M55.63,71.49H29a1.7,1.7,0,1,1,0-3.4h26.6a1.7,1.7,0,0,1,0,3.4"/><path class="cls-1" d="M68.56,39.15h-7V76.6H32.48v4.53a2.28,2.28,0,0,0,2.27,2.28H68.56a2.28,2.28,0,0,0,2.28-2.28V41.42a2.28,2.28,0,0,0-2.28-2.27"/></g><g id="Layer_2-2" data-name="Layer 2"><rect class="cls-2" width="93" height="115"/></g></g></svg>