<svg xmlns="http://www.w3.org/2000/svg" viewBox="0 0 93 115"><defs><style>.cls-1{fill:#fff;}.cls-2{fill:none;}</style></defs><g id="Layer_2" data-name="Layer 2"><g id="Layer_1-2" data-name="Layer 1"><path class="cls-1" d="M61.94,69.32a14.51,14.51,0,0,0-4.29,10.35V86h-2V67h1.19l.93-2.47,2.4,1.09,3.1-3.1-1.09-2.4,2.47-.93V54.83l-2.47-.93,1.09-2.4-3.1-3.1-2.4,1.09L56.84,47H55.65V41.41a18,18,0,0,1,11,16.53,16,16,0,0,1-4.71,11.38M60.09,54.51c.07.14.13.29.19.44l.16.43,2.21.83v1.62l-2.21.83-.16.43c-.06.15-.12.3-.19.45L59.9,60l1,2.16-1.14,1.14-2.16-1-.41.19-.45.19-.43.16L55.46,65H53.85L53,62.81l-.42-.16a4.68,4.68,0,0,1-.45-.19l-.42-.19-2.15,1-1.14-1.14,1-2.16-.19-.41a4.22,4.22,0,0,1-.18-.45l-.16-.43-2.22-.83V56.21l2.22-.83L49,55a3.38,3.38,0,0,1,.18-.44l.19-.42-1-2.16,1.14-1.14,2.15,1,.42-.19a3,3,0,0,1,.45-.18l.42-.16L53.84,49h1.62l.83,2.22.43.16.45.18.41.19,2.16-1,1.14,1.14-1,2.16ZM49.18,72.14,38,78.16a7.29,7.29,0,0,1-3.42.86,3.94,3.94,0,0,1-3.93-3.93A18,18,0,0,0,26.05,63l.27-.27a18.27,18.27,0,0,0,4.53-7.58l.72-2.4A17.83,17.83,0,0,1,53.65,40.73V47H52.46l-.93,2.47-2.4-1.09L46,51.5l1.09,2.4-2.47.93v4.38l2.47.93L46,62.54l3.1,3.1,2.4-1.09L52.46,67h1.19V86h-11V77.93l7.48-4ZM48.73,38a19.8,19.8,0,0,0-19.08,14.2l-.72,2.39a16.09,16.09,0,0,1-4,6.75l-.95,1a1,1,0,0,0-.3.7,1,1,0,0,0,.3.71,16,16,0,0,1,4.7,11.36A5.94,5.94,0,0,0,34.58,81,9.26,9.26,0,0,0,39,79.92l1.7-.92v8a1,1,0,0,0,1,1h17a1,1,0,0,0,1-1V79.67a12.59,12.59,0,0,1,3.7-8.94,18,18,0,0,0,5.3-12.79A19.94,19.94,0,0,0,48.73,38"/><path class="cls-1" d="M20.65,28h4v6h-4a3,3,0,1,1,0-6m47,5.38V28.64L72.42,31ZM26.65,32h2V30h-2V28h39v2h-35v2h35v2h-39Zm-6,4H66.89l10-5-10-5H20.65a5,5,0,1,0,0,10"/><path class="cls-1" d="M54.65,59a2,2,0,1,1,2-2,2,2,0,0,1-2,2m0-6a4,4,0,1,0,4,4,4,4,0,0,0-4-4"/><path class="cls-1" d="M74.65,86a1,1,0,1,1,1-1,1,1,0,0,1-1,1m0-4a3,3,0,1,0,3,3,3,3,0,0,0-3-3"/><path class="cls-1" d="M18.65,68a1,1,0,1,1,1-1,1,1,0,0,1-1,1m0-4a3,3,0,1,0,3,3,3,3,0,0,0-3-3"/><rect class="cls-1" x="17.65" y="74.02" width="2" height="2"/><rect class="cls-1" x="17.65" y="80.02" width="2" height="2"/><rect class="cls-1" x="17.65" y="86.02" width="2" height="2"/><rect class="cls-1" x="73.65" y="64.02" width="2" height="2"/><rect class="cls-1" x="73.65" y="70.02" width="2" height="2"/><rect class="cls-1" x="73.65" y="76.02" width="2" height="2"/></g><g id="Layer_2-2" data-name="Layer 2"><rect class="cls-2" width="93" height="115"/></g></g></svg>