<svg xmlns="http://www.w3.org/2000/svg" viewBox="0 0 684.49 77.56"><g id="Layer_2" data-name="Layer 2"><g id="Layer_1-2" data-name="Layer 1"><path d="M666.92,1.62V4.13H674l-8.44,55.66L655.74,1.62h-7.07l-8.44,59.54-8-57.26h8V1.39H614.91V3.9h5.47l11.18,73.23h9.13l7.75-46.31,8.44,46.31H666l11.18-73h7.3V1.62ZM575,3.9h7.3V74.62h-7.07v2.51H612.4V57.28h-1.83s-.45,8-1.59,11.41a11,11,0,0,1-6.62,5.7,55.27,55.27,0,0,1-7.3.46V37.43s5.71-.23,7.3.69c2.51,2.05,2.74,5.7,3.2,9.81h1.82V25.8h-2c0,2.74-1.14,6.39-3.2,8-2,2.06-7.3,1.14-7.3,1.14V4.13s7.08-.23,9.36.22c5.47,2.74,5.7,8.9,6.38,14.38h1.83V1.62H574.76L575,3.9Zm-11.41,0h7.07V1.39H545.79V3.9H552V74.62h-7.3v2.51h26.69V74.62h-7.53C563.58,74.5,563.58,3.9,563.58,3.9Zm-33.08,0h6.39L525.71,69.83c-.23,0-11.18-65.93-11.18-65.93h6.62V1.39h-23.5V3.9h3.65l13.92,73h12.09l13-73H544V1.39H531V3.9ZM493.09,68.23c-2.74,6.16-12.09,6.39-16.42,6.39V38.57s6.38,0,8,.92c2.51,1.82,3.19,5.47,3.65,9.12h1.83V25.8h-2.06c-.23,3.42-.45,7.53-3.65,9.81-1.82,1.37-8,.68-8,.68V4.13c2.51,0,7.75-.46,10,.45,5.7,2.74,5.93,9.36,6.38,15.06h2.06V1.39h-36.5V3.9h5.7V74.85h-5.25v2.5h37.64V57.51h-2.05A51.15,51.15,0,0,1,493.09,68.23ZM453.4,74.05C450.2,64.47,449.29,54.88,445,46c-2.74-5.48-8.67-8-14.15-8.44,6.39-.69,13-3.2,16.2-9.81,2.05-5,2.51-13.23-.68-18.25a16.53,16.53,0,0,0-13.69-8H403V4h7.3V74.73h-7.53V77h26.92V74.5h-6.61v-36h1.59c3.2.23,7.3,1.37,8.67,3.88,3.65,5.7,6.62,26.46,7.3,30.57.23,1.59,0,3.19.91,4.33h16.2V74.73c-.68,0-3.42,0-4.33-.68Zm-31-38V3.9c2.06,0,7.07,0,8.44.91,5.25,5.48,4.79,15.06,4.57,22.36-.46,3.19-1.6,7.07-4.8,8.44-1.82.68-8.21.45-8.21.45Zm-44,21.9h-2.51a46.5,46.5,0,0,1-.68,9.81c-1.14,2.74-3.42,6.16-6.62,6.62H359V3.67h8V1.16H340V3.67h6.61V74.39h-6.84V76.9h38.55c0-5.93-.22-12.78,0-18.94ZM317.55,1.62H306.37l-12.32,73h-5.93V76.9h15.74V74.39h-6.61l3.87-23h14.6l4.57,23h-7.08V76.9h24.64V74.39h-4.79C333.06,74.5,317.55,1.62,317.55,1.62Zm-9.13,47h-7.3l5.71-35.81,7.75,35.81ZM285.61,3.9V1.39h-26V3.9H266V74.62h-6.61v2.51h26V74.62h-6.16V3.9ZM244.32,74.27c-2.51,1.37-7.3.92-9.12-1.14-3.88-4.56-6.39-12.31-6.85-18.47-1.37-14.15-1.37-21,.46-32.17.91-6.39,2.74-12.77,7.07-17.34,2.74-2.51,7.53-2.05,10.49-.45,5.94,3.87,5.71,11.17,6.16,17.56H255v-21h-2c0,1.15,0,2.06-.91,2.74-2.06.46-3.2-2-4.79-2.51C243-1,236.79-.09,232.46,2.19a34.72,34.72,0,0,0-16.88,27.37c-1.6,17.11.91,35.13,15,45.17,4.57,2,11,4.56,15.52,1.14,0,0,3.65-3.65,5-3.65s1.37,2.51,1.37,4.11h2.06V57.62h-2.74c-.46,6.28.46,11.29-7.53,16.65ZM215.81,3.9V1.39H200.75V3.9h5.7V54.09L186.38,1.39h-17.8V3.9H175V74.62h-6.61v2.51h16.19V74.62h-6.38V14.85l23.72,62.5h8v-73h6.39ZM148.05,1.62H136.42l-12.55,73h-6.39V76.9h17.11V74.39h-7.3l3.88-23.5h13.46l4.79,23.5h-6.84V76.9h23.49V74.39h-3.42C162.88,74.5,148.05,1.62,148.05,1.62ZM131.4,48.15l5.47-33.53L144,48.15ZM120.68,3.9V1.39H105.17V3.9h6.38v52L91,1.62H73V4.13h6.39V74.85H72.77v2.28H89.65V74.62H82.81V16.22l22.36,61.13h9.58v-73h6.16A.68.68,0,0,1,120.68,3.9ZM63,3.9h6.62V1.39H43.34V3.9h7.3V74.62H42.2v2.51H70V74.62H63ZM0,3.9H9.58V74.62H0v2.51H29.88V74.62h-8V37.89h6.62c3.42,0,4.1,6.39,3.87,9.81H34.9V24.43H32.39c.23,3.88-.68,11.18-3.87,11.18H22.13V3.67c4.1.23,10.49.46,13.46,3.65,3.88,3.88,3.65,9.58,4.1,14.83h1.83V1.62H0Z"/></g></g></svg>