<svg xmlns="http://www.w3.org/2000/svg" viewBox="0 0 402.2 105.22"><g id="Layer_2" data-name="Layer 2"><g id="Layer_1-2" data-name="Layer 1"><path d="M99.93,104.94A31.43,31.43,0,0,1,82.1,96.31a32.46,32.46,0,0,1-8.3-14,51.51,51.51,0,0,1,0-29.72,34.89,34.89,0,0,1,17-20.07c10.77-5.41,25.93-5.07,35.91.8,9,5.29,14.42,14.68,15.93,27.51A67,67,0,0,1,142,76.49c-3,14-11.65,23.75-24.36,27.43a40.36,40.36,0,0,1-4.72,1,77.65,77.65,0,0,1-13,0Zm10.49-5.61c2-.61,4.57-3,5.92-5.56,2.78-5.31,4-13.18,4.06-25.66,0-15.65-2.42-25.61-7.6-30.82-2.17-2.19-3.71-2.87-6.49-2.87-6.17,0-10.09,6.45-11.64,19.14-.71,5.83-.71,19.71,0,24.81,2.19,15.78,7.85,23.3,15.75,21Z"/><path d="M224.12,104.93c-2.87-.29-11.64-1.75-14.7-2.44L207.3,102l.17-11.31c.39-27.24.44-42.1.19-56.56-.26-14.17-.33-15.67-.88-17.76-.69-2.66-1.69-4.51-2.89-5.36a9.61,9.61,0,0,0-2.82-1c-3.6-.81-3.4-.68-3.5-2.32,0-.95.05-1.57.29-1.77S227.72,0,228.66,0c.27,0,.31,3.78.17,16.78-.1,9.22-.11,16.77,0,16.77s1.16-.47,2.4-1a29.12,29.12,0,0,1,12.14-2.64,25.23,25.23,0,0,1,6.57.31c11.14,2.3,19.38,11.42,22.26,24.62a69.49,69.49,0,0,1,.53,16.29,53.08,53.08,0,0,1-2.9,11.77c-4.76,12.06-15,19.92-28.54,22a108,108,0,0,1-17.14.1Zm11.58-5.75a10.66,10.66,0,0,0,5.49-2.81c4.39-4,7.69-12.1,9-22.2a85,85,0,0,0-.13-16.92c-1.58-9.28-5-15.38-10-17.84a7.76,7.76,0,0,0-4.83-1.09,16.35,16.35,0,0,0-4.53.56l-1.91.57L228.67,50c-.18,13.54.26,47.43.63,48.41.24.62.5.75,1.67.84a13.62,13.62,0,0,0,4.73-.08Z"/><path d="M307.25,104.78c-14.35-2.58-24.61-12.76-28-27.72a42.51,42.51,0,0,1-.73-8.24c-.17-6.59.37-10.68,2.07-15.76,3.26-9.76,9.11-16.68,17.62-20.82,9-4.38,21.24-4.66,29.18-.68C336.37,36,341.63,45,343,58a38.26,38.26,0,0,1,.23,4.62l-.1,1.45-21.4.07-21.39.08.08,2.52a35.91,35.91,0,0,0,3.78,15.54,18.27,18.27,0,0,0,3.94,5.23c4.63,4.67,9.23,6.48,16.49,6.48a22.07,22.07,0,0,0,13-3.61,10.27,10.27,0,0,1,2.49-1.3c.61,0,2,1.79,2,2.57,0,1.27-4.15,5.38-8.2,8.11a37.13,37.13,0,0,1-13.12,5.07A54.13,54.13,0,0,1,307.25,104.78Zm9.08-47.13,5-.17-.18-3.58c-.64-12.6-3.73-19.48-8.73-19.48-5.43,0-9.78,7-11.58,18.64a32.63,32.63,0,0,0-.41,3.77V58l5.42-.09c3,0,7.69-.16,10.46-.26Z"/><path d="M365.08,105.15c-5.15-.55-13.35-2.35-16.08-3.52l-1.34-.58-.18-6.6c-.1-3.63-.21-8.49-.25-10.8l-.08-4.19.8-.38a6.21,6.21,0,0,1,2-.44l1.17,0,1,2.46c3.9,9.59,8.47,14.76,14.43,16.33a19.15,19.15,0,0,0,8.23,0c4.73-1.67,7.31-5.24,7.34-10.13,0-5.78-3.16-8.56-15.16-13.25-7.44-2.9-10-4.4-13.13-7.56-3.33-3.41-4.93-7.3-5.23-12.71A21.28,21.28,0,0,1,354.78,37c4.56-4.73,10.49-7.29,18.55-8,7.11-.65,18,.85,23.73,3.27l1,.44.19,5.89c.1,3.24.2,7.58.23,9.65l.05,3.76-1.4.52c-2.21.82-2.36.72-3.59-2.55-3.45-9.14-7.46-13.47-13.71-14.79-3.81-.8-7,.06-9.3,2.53a9.21,9.21,0,0,0-2.68,6.52c-.18,3.11.38,4.8,2.28,6.88,2.35,2.57,6.19,4.78,13.85,8,9.37,3.92,13.85,7.25,16.28,12.11,1.58,3.16,2,5.68,1.87,10.54-.12,3.64-.24,4.39-1.06,6.84-2.71,8-8.81,13.22-18.23,15.68-3.19.84-3.65.88-10,1-3.65,0-7.17,0-7.8,0Z"/><path d="M.38,105.05C.14,105,0,104.24,0,102.9c0-2.39-.15-2.29,4.48-3.15,3.56-.66,4.83-1.33,6.4-3.39,3-4,3.7-11.67,3.71-43.31,0-29.71-.57-36-3.71-40.55-1.4-2-3.75-3.14-7.7-3.61l-3-.37L.08,6.15,0,3.78l1-.17c.52-.09,18.91-.13,40.85-.08l39.89.08.19,1.15c.1.64.27,7.17.37,14.5l.19,13.35-2,.62c-3.1.94-3.08,1-4.47-2.73-3.43-9-7.35-14.27-12.72-16.9-3.7-1.82-5.41-2-15.87-2h-9.1l-.15,1.52c-.3,2.84-.76,21.16-.76,29.78v8.6H40c1.47,0,4.37-.12,6.44-.24,3.12-.19,4.05-.36,5.35-1,3.21-1.48,5.39-4.75,6.73-10.07l.69-2.74,2.36-.09,2.36-.08V72l-2.37-.09-2.36-.08-.67-2.75c-1.26-5.16-3.68-8.86-6.67-10.18-1.39-.61-4.81-1-11.43-1.16l-3.11-.1v6.53c0,7.11.39,16.73.9,22,.69,7.28,2.55,11.3,5.9,12.75a25.72,25.72,0,0,0,4.48,1,25.24,25.24,0,0,1,3.83.76c.71.36.75,4.13,0,4.4-.55.21-51.57.19-52.1,0Z"/><path d="M142.92,105c-.26-.17-.35-.84-.29-2.24l.09-2,1-.21c.56-.12,1.75-.36,2.66-.52,2.8-.53,4.41-2,5.31-5,.74-2.43,1.07-10.19,1.08-25.76,0-19.06-.37-23.56-2.3-26.11-1-1.38-1.8-1.77-4.33-2.26l-2.92-.57c-.58-.12-.66-.31-.66-1.73s.09-1.62.66-1.85c.86-.36,29.51-6.09,30.42-6.09h.71L174.22,35c-.07,2.34-.2,5.76-.27,7.59l-.13,3.32,1-1.87c3.32-6,7-9.71,12-12a16.33,16.33,0,0,1,7.89-1.62c4,0,8,1.3,8,2.61,0,.87-7,19.42-7.41,19.57a11.46,11.46,0,0,1-3-1.17,20.26,20.26,0,0,0-8.84-2.21c-3.51,0-7.44,1.31-9,3-.66.71-.67.75-.83,11.38s.19,23.35.78,28.51c.5,4.4,1.67,6.56,4.08,7.57a42.71,42.71,0,0,0,7.56,1,5.64,5.64,0,0,1,.15,2.24l-.09,2.24-21.39.07c-11.77,0-21.57,0-21.78-.17Z"/></g></g></svg>