<svg xmlns="http://www.w3.org/2000/svg" viewBox="0 0 609.28 80.09"><g id="Layer_2" data-name="Layer 2"><g id="Layer_1-2" data-name="Layer 1"><path d="M45.67,8.27C45.67,1.65,39.38,0,34.42,0V1c3,0,5.29,1,5.29,3.31,0,1.33-1,3.31-4,3.31-2.31,0-7.28-1.32-10.92-2.65-4.3-1.65-8.27-3-11.58-3C6.62,2,2,7,2,12.58c0,5,3.64,6.61,5,7.28l.33-.67a4,4,0,0,1-1.65-3.3c0-1.33,1.32-3.64,4.63-3.64,3,0,7,1.32,12.24,3a92.61,92.61,0,0,0,12.25,2.65V28.13l-5,4.3v.33l5,4.31V51.3a15.33,15.33,0,0,1-8.27,2c-5,0-9.27-1.32-12.91-5.29l13.57-6.62V18.53L10.59,25.81c1.32-4.3,5-7.28,8.6-9.26l-.33-1C8.94,18.2,0,27.47,0,38.72A23.23,23.23,0,0,0,23.17,61.89,21.53,21.53,0,0,0,45,40.38h-.66c-2,4.3-5,8.27-8.61,10.26V37.07L41,32.76v-.33l-5.3-4.3V17.87C40.71,17.87,45.67,14.56,45.67,8.27ZM16.88,44.68l-4,2c-2.32-3-3.64-6.95-3.64-12.57a23.68,23.68,0,0,1,.66-7l7-3ZM52,52.29l-4.3,3.31.66.66,2-1.65,7.28,6.62,9.93-6.62-.33-.67L64.53,55.6l-3.3-3.31V29.79l2.64-2,5.63,4.63V52.62c0,12.58-2.65,14.56-8.27,16.55v1c9.26.33,17.87-2.65,17.87-18.86V29.45l3-2.31-.67-.66-2.64,2-8.28-6.95-9.26,7V1.32h-.67L49,9.27v.66c1.32.66,3.31,1.32,3.31,5Zm60.56-3.64-8.27,6.29L96,48.32v-4l15.56-10.59v-.33l-7.94-11.92L86.38,30.78V52.62l-3.31,2.65.66.66,3-2.32L98,61.89,112.85,50ZM96,43V26.81l.67-.33,7.28,11.58ZM175.73,5.3a9.63,9.63,0,0,0-.66-3h-.66c-1,2.64-2.32,4-5.63,4a8.76,8.76,0,0,1-6.28-3l-9.6,10.92.66.66,3.31-3c2,1.66,3.64,3,8.27,3.31V42.69L145.62,9.27C144,6.62,141.65,3,137,3c-5.29,0-9.93,4.63-9.26,11.91h1c.33-2,1.32-4.3,3.64-4.3,1.65,0,3.31,1.66,4.3,3.31V24.82c-6,0-9.93,2.65-9.93,7.61,0,2.65,1.33,6.62,5.3,7.61v-.66a3,3,0,0,1-1-2.31c0-1.66,1.32-3,3.64-3h1.65V48c-6.95,0-12.58,4-12.58,10.59,0,6.29,5.3,9.26,11.26,8.93v-.66c-3.64-.33-5.3-2-5.3-4.3,0-3,2-4.3,4.63-4.3s5,1.65,6.62,3.64l9.6-10.59-.66-.66-2.32,2.64C144,50,142,49,137.67,48.32V15.22l26.48,46.34h2V15.22A10.12,10.12,0,0,0,175.73,5.3Zm24.16,43.35-8.27,6.29-8.27-6.62v-4L198.9,33.76v-.33L191,21.51l-17.21,9.27V52.62l-3.31,2.65.66.66,3-2.32,11.25,8.28L200.22,50ZM183.35,43V26.81l.66-.33,7.28,11.58Zm70.49-17.87-2.32,1.66-6.29-5.3L238,28.13l3,3V55.93L233,51V30.45l2.65-1.66L228,21.51l-7.28,6.62,3,3V54.94l-1,.66-6.95-5V30.78c0-4.64-2.32-6-5-7.61-2.31-1.66-3.64-2.65-3.64-5,0-2,2-3,3-3.64V13.9c-2.65,0-9.6,2.65-9.6,8.94,0,3.3,1.66,4.63,3.31,6.28s3.31,3,3.31,6v19.2l-3.64,2.64.67.66,3.3-2.64,7.62,6.62,8.27-5.63,9.27,5.63L250.2,51.3V29.12l4.3-3.31-.66-.66ZM315.39,7l-3.31,3L304.8,3.31l-10.92,7.94V4h-1l.33,53.61a36,36,0,0,1-6.29-1.32l-.66-44.68A7.87,7.87,0,0,0,278,3.64a9.62,9.62,0,0,0-9.93,9.27h1c.33-2,1.32-3.64,3.31-3.64S276,10.59,276,14.89V27.8c-6,.33-9.6,3.64-9.6,7.94,0,2.65,1.33,6.62,5.3,6.62V41.7a2.62,2.62,0,0,1-1.66-2.32c0-2,1.66-2.64,4.31-2.64h1.32V57.25c-5,1.66-6.95,5.3-6.95,9.27,0,5.63,4.3,9.6,10.92,9.6a50,50,0,0,0,12.58-1.66c3.31-.66,7.61-1.65,9.59-1.65,2.65,0,3.65,1.32,3.65,3,0,2.31-1,3.31-2.32,3.64v.66c5.29-1,8.6-4.3,8.6-9.27s-5-7.94-10.26-7.94c-2.64,0-8.27,1-12.24,1.65a76,76,0,0,1-10.59,1.66c-2.32,0-5-1-5-4.3,0-2.65,2.32-5,7.95-5a39.39,39.39,0,0,1,10.26,1.33c4,1,7.61,2,10.92,2,5,0,9.26-1.65,9.26-8.6V10.92l4-3.31L315.39,7ZM301.82,27.14a5.75,5.75,0,0,1-4,2,5.16,5.16,0,0,1-4-2V12.58l3.31-2.32,4.63,4.3Zm0,9.93a5.58,5.58,0,0,0-7.94,0V28.46a5.58,5.58,0,0,0,7.94,0Zm0,15.55a5,5,0,0,1-5.29,5.3h-2.65V38.39a6.33,6.33,0,0,1,4-1.65,7.24,7.24,0,0,1,4,1.65Zm45.34-23.5-10.59-7.61-16.21,9.27V52.29l-3.31,2.65.33.66,2.65-2,10.59,8,16.54-9.93ZM329.29,50V26.14l8.28,6V55.6Zm49.31-27.8h-.66a5.86,5.86,0,0,1-3,1.33,4.74,4.74,0,0,1-3.64-1.66h-.66L365,28.13l-5.63-6.29-9.93,6.62.33.66,2.65-1.65,3.31,3.64V52l-4.3,3.31.66.66,2-1.65,7.95,6.61,10.26-7-.33-.66-3,1.66-4-3.31V28.46c1.65,1.66,3.64,3.31,5.95,3.31,4.64.33,7.28-4.3,7.61-9.6Zm39.72,31.77-11.25,7.62L391.84,38.39l10.92-16.88h.67a8.21,8.21,0,0,0,5.62,2.65,6.2,6.2,0,0,0,5-2.65h.66c-.33,6.62-5,10.59-8.28,10.59s-5-1.65-6.95-2.65l-1,1.66L415,55.6l3.31-2Zm-36.41-1.65-4.3,3.31.66.66,2-1.65,7.28,6.62,9.93-6.62-.66-.67-2.65,1.66-3.31-3.31v-51h-.33l-11.92,8v.66c1.33.66,3.31,1,3.31,5Zm91.35-44C473.26,1.65,467,0,462,0V1c3,0,5.3,1,5.3,3.31,0,1.33-1,3.31-4,3.31-2.32,0-7.28-1.32-10.92-2.65-4.31-1.32-8.28-2.64-11.59-2.64-6.62,0-11.25,5-11.25,10.59,0,5,3.64,6.62,5,7.28l.33-.66a3.49,3.49,0,0,1-2-3.31c0-1.33,1.32-3.64,4.63-3.64,3,0,6.95,1.32,12.25,3A92.52,92.52,0,0,0,462,18.2V28.46l-5,4.3v.33l5,4.31V51.63a15.29,15.29,0,0,1-8.27,2c-5,0-9.27-1.32-12.91-5.29l13.57-6.62V18.53l-16.55,7.28c1.66-4.3,5.3-7.28,8.61-9.59l-.33-.67c-9.93,2.65-18.87,11.59-18.87,22.84a23.24,23.24,0,0,0,23.17,23.17A21.53,21.53,0,0,0,472.26,40h-.66c-2,4.31-5,8.28-8.6,10.26V36.74l5.29-4.31V32.1l-5-4.3V17.87C468.29,17.87,473.26,14.56,473.26,8.27Zm-28.8,36.41-4,2c-2.31-3-3.64-6.95-3.64-12.57a23.54,23.54,0,0,1,1-7l7-3ZM484.84,5h-.33l-6.62,5.63v.33l5.63,6.29h.66l6.62-5.63v-.33l-6-6.29Zm9.93,49-2.65,1.66-3.31-3.31V29.45l3.31-2.31-.66-.66-2.32,2-6-6.95-9.59,6.62.66,1,2.32-1.65,3,3.64V52.62l-4.3,3.31.33.66,2.32-1.65,7.28,6.62,9.93-6.62-.33-1ZM550,53.61l-2.32,1.66L544.08,52V29.45l3.31-2.64-.66-.67-2.65,2.32-7.61-6.95-9.93,7-7.61-6.95-9.27,7-6-6.95-9.59,6.62.33,1,2.31-1.65,3.31,3.64V52.62l-2.64,2.65L505,61.56l7.28-6.62-3-3V29.45l3-2,5,4.63V52l-2.65,2.65,7.62,6.28,7.28-6.61-3-3V29.45l2.65-1.65,5.29,4.63V52.29l-2.32,2.32,7.62,7,10.26-7v-1Zm28.79-5-8.28,6.29-8.27-6.62v-4l15.56-10.59v-.33l-8-11.92-17.21,9.27v22.5l11.59,8.28,14.89-11.92ZM562.28,43V26.81l.66-.33,7.28,11.58Zm46.66-3-6.28-5a16.44,16.44,0,0,0,6-11.91v-2H608a4.75,4.75,0,0,1-4.63,3.31c-2.65,0-4.3-1.32-6-3.31l-14.89,8.27V41.37l5.62,4.3c-5.62,5-6.61,8.27-6.61,10.92a6.6,6.6,0,0,0,4.3,6.62l.33-.66a3,3,0,0,1-1.32-2.65c0-1,1.32-2.65,4-2.65,3.31,0,5.29,2.32,6.28,3.31L609.28,52V40Zm-3.64-9.92C603,34.09,598,38.06,595,40l-3.64-3V25.48a9.81,9.81,0,0,0,8.61,6A9,9,0,0,0,605.3,30.12Zm-5.62,26.47a11,11,0,0,0-9.6-6.29A11.53,11.53,0,0,0,583.79,52a37,37,0,0,1,11.59-10.59l4,3.31.33,11.91Z"/></g></g></svg>