<svg xmlns="http://www.w3.org/2000/svg" viewBox="0 0 170.06 23.38"><defs><style>.cls-1{fill:#2d2b2b;}</style></defs><g id="Layer_2" data-name="Layer 2"><g id="Layer_1-2" data-name="Layer 1"><path class="cls-1" d="M5.15,21.59H4.66L.55,16.26v5.33H0V15.32H.49l4.12,5.33V15.32h.54Z"/><path class="cls-1" d="M11,19.49a2.13,2.13,0,0,1-2.19,2.17,2.18,2.18,0,1,1,0-4.35A2.13,2.13,0,0,1,11,19.49Zm-3.86,0a1.67,1.67,0,1,0,1.67-1.7A1.63,1.63,0,0,0,7.09,19.49Z"/><path class="cls-1" d="M15.06,17.84H13.12v2.3c0,.71.38,1,.94,1a1.57,1.57,0,0,0,.94-.32l.24.38a1.89,1.89,0,0,1-1.22.42c-.88,0-1.41-.49-1.41-1.51V17.84h-1v-.46h1V16h.51v1.38h1.94Z"/><path class="cls-1" d="M20,19.46a1.41,1.41,0,0,1,0,.21H16.43a1.57,1.57,0,0,0,1.63,1.55,2,2,0,0,0,1.42-.61l.27.35a2.24,2.24,0,0,1-1.72.7,2.06,2.06,0,0,1-2.12-2.17A2.07,2.07,0,0,1,18,17.31,2,2,0,0,1,20,19.46Zm-3.54-.23h3A1.49,1.49,0,0,0,18,17.76,1.55,1.55,0,0,0,16.43,19.23Z"/><path class="cls-1" d="M24.07,18.18a2.67,2.67,0,0,0-1.43-.42c-.66,0-1.12.28-1.12.76s.31.6,1,.68l.54.06c.88.1,1.38.47,1.38,1.13s-.73,1.27-1.81,1.27a2.92,2.92,0,0,1-1.74-.54l.24-.38a2.28,2.28,0,0,0,1.5.48c.76,0,1.29-.27,1.29-.79s-.32-.63-1-.7l-.55-.06c-.95-.11-1.36-.53-1.36-1.13,0-.77.67-1.23,1.64-1.23a2.93,2.93,0,0,1,1.65.47Z"/><path class="cls-1" d="M32.05,19.49a2.2,2.2,0,1,1-2.2-2.18A2.14,2.14,0,0,1,32.05,19.49Zm-3.87,0a1.67,1.67,0,1,0,1.67-1.7A1.63,1.63,0,0,0,28.18,19.49Z"/><path class="cls-1" d="M37.13,19v2.58h-.52V19.16a1.25,1.25,0,0,0-1.35-1.37,1.36,1.36,0,0,0-1.41,1.4v2.4h-.51V17.38h.51v.73a1.69,1.69,0,0,1,1.5-.8A1.63,1.63,0,0,1,37.13,19Z"/><path class="cls-1" d="M45.36,19.49a2.09,2.09,0,0,1-2.11,2.17,1.9,1.9,0,0,1-1.66-.87v.8h-.51V15.14h.51v3a1.9,1.9,0,0,1,1.66-.87A2.1,2.1,0,0,1,45.36,19.49Zm-3.81,0a1.65,1.65,0,1,0,1.64-1.7A1.62,1.62,0,0,0,41.55,19.49Z"/><path class="cls-1" d="M50.39,19.85a1.89,1.89,0,0,1-3.78,0V17.38h.51V19.8a1.38,1.38,0,1,0,2.76,0V17.38h.51Z"/><path class="cls-1" d="M54.78,18.18a2.7,2.7,0,0,0-1.43-.42c-.66,0-1.12.28-1.12.76s.31.6,1,.68l.53.06c.88.1,1.39.47,1.39,1.13s-.73,1.27-1.82,1.27a2.89,2.89,0,0,1-1.73-.54l.24-.38a2.24,2.24,0,0,0,1.5.48c.76,0,1.29-.27,1.29-.79s-.33-.63-1-.7l-.54-.06c-1-.11-1.37-.53-1.37-1.13,0-.77.67-1.23,1.64-1.23a3,3,0,0,1,1.66.47Z"/><path class="cls-1" d="M57,15.86a.37.37,0,0,1-.73,0,.37.37,0,1,1,.73,0Zm-.11,5.73h-.51V17.38h.51Z"/><path class="cls-1" d="M62.25,19v2.58h-.51V19.16a1.25,1.25,0,0,0-1.35-1.37A1.36,1.36,0,0,0,59,19.19v2.4h-.51V17.38H59v.73a1.72,1.72,0,0,1,1.51-.8A1.63,1.63,0,0,1,62.25,19Z"/><path class="cls-1" d="M67.56,19.46a1.41,1.41,0,0,1,0,.21H64a1.57,1.57,0,0,0,1.63,1.55,1.94,1.94,0,0,0,1.42-.61l.28.35a2.26,2.26,0,0,1-1.73.7,2.06,2.06,0,0,1-2.12-2.17,2.07,2.07,0,0,1,2.09-2.18A2,2,0,0,1,67.56,19.46ZM64,19.23h3a1.48,1.48,0,0,0-1.46-1.47A1.53,1.53,0,0,0,64,19.23Z"/><path class="cls-1" d="M71.66,18.18a2.64,2.64,0,0,0-1.43-.42c-.65,0-1.11.28-1.11.76s.3.6.95.68l.54.06c.88.1,1.39.47,1.39,1.13s-.73,1.27-1.82,1.27a2.89,2.89,0,0,1-1.73-.54l.23-.38a2.29,2.29,0,0,0,1.51.48c.76,0,1.28-.27,1.28-.79s-.32-.63-1-.7L70,19.67c-1-.11-1.37-.53-1.37-1.13,0-.77.67-1.23,1.64-1.23a2.93,2.93,0,0,1,1.65.47Z"/><path class="cls-1" d="M76,18.18a2.7,2.7,0,0,0-1.43-.42c-.66,0-1.12.28-1.12.76s.31.6,1,.68l.53.06c.88.1,1.39.47,1.39,1.13s-.73,1.27-1.82,1.27a2.89,2.89,0,0,1-1.73-.54l.24-.38a2.24,2.24,0,0,0,1.5.48c.76,0,1.28-.27,1.28-.79s-.32-.63-1-.7l-.54-.06c-.95-.11-1.37-.53-1.37-1.13,0-.77.67-1.23,1.64-1.23a3,3,0,0,1,1.66.47Z"/><path class="cls-1" d="M78.28,20.54l-.43,2.17h-.44l.27-2.17Z"/><path class="cls-1" d="M84.73,17.46l-.13.5a1.69,1.69,0,0,0-.75-.17,1.26,1.26,0,0,0-1.2,1.42v2.38h-.51V17.38h.5v.71a1.48,1.48,0,0,1,1.3-.79A1.8,1.8,0,0,1,84.73,17.46Z"/><path class="cls-1" d="M89.35,19.46a1.41,1.41,0,0,1,0,.21H85.81a1.58,1.58,0,0,0,1.63,1.55,1.94,1.94,0,0,0,1.42-.61l.28.35a2.26,2.26,0,0,1-1.73.7,2.06,2.06,0,0,1-2.12-2.17,2.07,2.07,0,0,1,2.09-2.18A2,2,0,0,1,89.35,19.46Zm-3.53-.23h3a1.48,1.48,0,0,0-1.46-1.47A1.54,1.54,0,0,0,85.82,19.23Z"/><path class="cls-1" d="M91.16,21.59h-.51V15.14h.51Z"/><path class="cls-1" d="M96.73,21.59h-.51v-.81a1.9,1.9,0,0,1-1.67.88,2.18,2.18,0,0,1,0-4.35,1.9,1.9,0,0,1,1.67.88v-.81h.51ZM93,19.49a1.64,1.64,0,1,0,1.64-1.7A1.62,1.62,0,0,0,93,19.49Z"/><path class="cls-1" d="M101.21,17.84H99.26v2.3c0,.71.38,1,.94,1a1.54,1.54,0,0,0,.94-.32l.24.38a1.87,1.87,0,0,1-1.22.42c-.88,0-1.41-.49-1.41-1.51V17.84h-1v-.46h1V16h.51v1.38h1.95Z"/><path class="cls-1" d="M103,15.86a.35.35,0,0,1-.37.36.35.35,0,0,1-.36-.36.35.35,0,0,1,.36-.37A.36.36,0,0,1,103,15.86Zm-.11,5.73h-.52V17.38h.52Z"/><path class="cls-1" d="M108.59,19.49a2.2,2.2,0,1,1-2.2-2.18A2.14,2.14,0,0,1,108.59,19.49Zm-3.87,0a1.67,1.67,0,1,0,1.67-1.7A1.64,1.64,0,0,0,104.72,19.49Z"/><path class="cls-1" d="M113.67,19v2.58h-.51V19.16a1.25,1.25,0,0,0-1.36-1.37,1.36,1.36,0,0,0-1.41,1.4v2.4h-.51V17.38h.51v.73a1.69,1.69,0,0,1,1.5-.8A1.63,1.63,0,0,1,113.67,19Z"/><path class="cls-1" d="M118.06,18.18a2.7,2.7,0,0,0-1.43-.42c-.66,0-1.12.28-1.12.76s.31.6,1,.68l.53.06c.88.1,1.39.47,1.39,1.13s-.73,1.27-1.82,1.27a2.89,2.89,0,0,1-1.73-.54l.24-.38a2.24,2.24,0,0,0,1.5.48c.76,0,1.28-.27,1.28-.79s-.32-.63-1-.7l-.54-.06c-1-.11-1.37-.53-1.37-1.13,0-.77.67-1.23,1.64-1.23a3,3,0,0,1,1.66.47Z"/><path class="cls-1" d="M120.12,18.11a1.69,1.69,0,0,1,1.5-.8,1.63,1.63,0,0,1,1.77,1.7v2.58h-.51V19.16a1.25,1.25,0,0,0-1.35-1.37,1.36,1.36,0,0,0-1.41,1.4v2.4h-.51V15.14h.51Z"/><path class="cls-1" d="M125.6,15.86a.35.35,0,0,1-.37.36.35.35,0,0,1-.36-.36.35.35,0,0,1,.36-.37A.36.36,0,0,1,125.6,15.86Zm-.11,5.73H125V17.38h.51Z"/><path class="cls-1" d="M131.4,19.49a2.1,2.1,0,0,1-2.12,2.17,1.9,1.9,0,0,1-1.66-.87v2.59h-.51v-6h.51v.8a1.9,1.9,0,0,1,1.66-.87A2.1,2.1,0,0,1,131.4,19.49Zm-3.81,0a1.64,1.64,0,1,0,1.64-1.7A1.62,1.62,0,0,0,127.59,19.49Z"/><path class="cls-1" d="M135.5,18.18a2.7,2.7,0,0,0-1.43-.42c-.66,0-1.12.28-1.12.76s.31.6,1,.68l.54.06c.87.1,1.38.47,1.38,1.13s-.73,1.27-1.82,1.27a2.89,2.89,0,0,1-1.73-.54l.24-.38a2.26,2.26,0,0,0,1.5.48c.76,0,1.29-.27,1.29-.79s-.33-.63-1-.7l-.54-.06c-.95-.11-1.37-.53-1.37-1.13,0-.77.67-1.23,1.64-1.23a3,3,0,0,1,1.66.47Z"/><path class="cls-1" d="M143.37,21.59h-.5v-.81a1.91,1.91,0,0,1-1.68.88,2.18,2.18,0,0,1,0-4.35,1.91,1.91,0,0,1,1.68.88v-.81h.5Zm-3.76-2.1a1.64,1.64,0,1,0,1.64-1.7A1.62,1.62,0,0,0,139.61,19.49Z"/><path class="cls-1" d="M148.78,19v2.58h-.51V19.16a1.25,1.25,0,0,0-1.35-1.37,1.36,1.36,0,0,0-1.41,1.4v2.4H145V17.38h.5v.73a1.72,1.72,0,0,1,1.51-.8A1.63,1.63,0,0,1,148.78,19Z"/><path class="cls-1" d="M153.81,18.19V15.14h.5v6.45h-.5v-.81a1.93,1.93,0,0,1-1.68.88,2.18,2.18,0,0,1,0-4.35A1.93,1.93,0,0,1,153.81,18.19Zm-3.26,1.3a1.64,1.64,0,1,0,1.64-1.7A1.62,1.62,0,0,0,150.55,19.49Z"/><path class="cls-1" d="M158.82,21.59h-.51V15.14h.51Z"/><path class="cls-1" d="M161.07,15.86a.37.37,0,0,1-.73,0,.37.37,0,1,1,.73,0ZM161,21.59h-.51V17.38H161Z"/><path class="cls-1" d="M165.37,17.84h-1.81v3.75h-.51V17.84h-1v-.46h1v-.73c0-.93.39-1.58,1.39-1.58a2.13,2.13,0,0,1,1.14.32l-.18.42a1.92,1.92,0,0,0-.93-.26c-.65,0-.91.41-.91,1.1v.73h1.81Z"/><path class="cls-1" d="M170.06,19.46a1.41,1.41,0,0,1,0,.21h-3.53a1.57,1.57,0,0,0,1.63,1.55,2,2,0,0,0,1.42-.61l.28.35a2.26,2.26,0,0,1-1.73.7A2.06,2.06,0,0,1,166,19.49a2.07,2.07,0,0,1,2.08-2.18A2,2,0,0,1,170.06,19.46Zm-3.54-.23h3a1.49,1.49,0,0,0-1.46-1.47A1.55,1.55,0,0,0,166.52,19.23Z"/><path class="cls-1" d="M8.28,3.49a2.91,2.91,0,0,1-2.57,3l2.71,3.65H5.24L2.85,6.59H2.7v3.53H0V.18H4.43C7,.18,8.28,1.49,8.28,3.49ZM2.7,2.6V4.37H4.4c.67,0,1.16-.28,1.16-.88S5.07,2.6,4.4,2.6Z"/><path class="cls-1" d="M18.8,10.12H11V.18H18.8v2.4H13.73V3.9h4.71V6.29H13.73V7.72H18.8Z"/><path class="cls-1" d="M26.1.18C28.76.18,30,1.28,30,3a2.31,2.31,0,0,1-1.32,2.09,2.32,2.32,0,0,1,1.52,2.14c0,1.76-1.17,2.85-3.8,2.85H21.64V.18Zm-1.76,2.2V4H26c.75,0,1.12-.28,1.12-.83s-.37-.83-1.11-.83Zm0,3.84V7.93H26.2c.78,0,1.17-.28,1.17-.86S27,6.22,26.2,6.22Z"/><path class="cls-1" d="M40.53,10.12H32.77V.18h7.76v2.4H35.46V3.9h4.71V6.29H35.46V7.72h5.07Z"/><path class="cls-1" d="M46.84,6.32h-.77v3.8h-2.7V.18h2.7V3.92h.78L49.35.18h3.28L49,5,53,10.12H49.64Z"/><path class="cls-1" d="M64.5,10.12H61.64L61,8.22H57.27l-.66,1.9H53.8L57.56.18h3.18Zm-6.4-4.3h2l-1-2.94Z"/><path class="cls-1" d="M68.94,3.86h3.67V.18h2.7v9.94h-2.7V6.34H68.94v3.78h-2.7V.18h2.7Z"/><path class="cls-1" d="M92.18,2.52,89.79,3.84A2.45,2.45,0,0,0,85.2,5.15a2.38,2.38,0,0,0,2.41,2.57,2.58,2.58,0,0,0,2.24-1.25L92.07,8a5.13,5.13,0,0,1-4.42,2.28A5,5,0,0,1,82.4,5.15,5,5,0,0,1,87.65,0,5,5,0,0,1,92.18,2.52Z"/><path class="cls-1" d="M103.91,10.12h-2.86l-.66-1.9H96.68L96,10.12H93.21L97,.18h3.18Zm-6.39-4.3h2l-1-2.94Z"/><path class="cls-1" d="M117.11,10.12h-2.69V3.9l-1.6,5.3H110l-1.6-5.3v6.22h-2.7V.18h3.74l2,6,2-6h3.74Z"/><path class="cls-1" d="M122.78,7v3.13h-2.69V.18h4.43c2.52,0,3.85,1.4,3.85,3.44S127,7,124.55,7Zm0-4.39v2h1.71a1,1,0,1,0,0-2Z"/><path class="cls-1" d="M135.42.18c2.67,0,3.85,1.1,3.85,2.86A2.29,2.29,0,0,1,138,5.13a2.32,2.32,0,0,1,1.52,2.14c0,1.76-1.17,2.85-3.79,2.85H131V.18Zm-1.76,2.2V4h1.7c.74,0,1.12-.28,1.12-.83s-.38-.83-1.12-.83Zm0,3.84V7.93h1.87c.77,0,1.17-.28,1.17-.86s-.4-.85-1.17-.85Z"/><path class="cls-1" d="M149.85,10.12h-7.76V.18h7.76v2.4h-5.06V3.9h4.71V6.29h-4.71V7.72h5.06Z"/><path class="cls-1" d="M160.16,10.12h-7.48V.18h2.7V7.63h4.78Z"/><path class="cls-1" d="M170.06,10.12h-7.48V.18h2.7V7.63h4.78Z"/></g></g></svg>